<svg version="1.1" id="Layer_1" xmlns="http://www.w3.org/2000/svg" xmlns:xlink="http://www.w3.org/1999/xlink" x="0px" y="0px"
	 width="100%" viewBox="0 0 400 400" enable-background="new 0 0 400 400" xml:space="preserve">
<path fill="#FBFBFC" opacity="1.000000" stroke="none" 
	d="
M401.000000,140.000000 
	C401.000000,227.333328 401.000000,314.166656 401.000000,401.000000 
	C267.666656,401.000000 134.333328,401.000000 1.000000,401.000000 
	C1.000000,267.666656 1.000000,134.333328 1.000000,1.000000 
	C134.333328,1.000000 267.666656,1.000000 401.000000,1.000000 
	C401.000000,47.166668 401.000000,93.333336 401.000000,140.000000 
M287.500031,15.205472 
	C200.339142,15.205645 113.178268,15.202553 26.017385,15.209716 
	C13.759279,15.210723 6.703177,22.156635 6.702498,34.227859 
	C6.696249,145.387314 6.695511,256.546753 6.705564,367.706207 
	C6.706657,379.792542 13.784197,386.789795 25.972404,386.790405 
	C142.631500,386.796478 259.290588,386.796478 375.949677,386.790497 
	C388.092163,386.789886 395.361877,379.744263 395.364838,367.753021 
	C395.392212,256.593567 395.393433,145.434143 395.363953,34.274700 
	C395.360748,22.196325 388.170349,15.214903 375.994385,15.209860 
	C346.829620,15.197780 317.664825,15.205685 287.500031,15.205472 
z"/>
<path fill="#354A5E" opacity="1.000000" stroke="none" 
	d="
M288.000061,15.205498 
	C317.664825,15.205685 346.829620,15.197780 375.994385,15.209860 
	C388.170349,15.214903 395.360748,22.196325 395.363953,34.274700 
	C395.393433,145.434143 395.392212,256.593567 395.364838,367.753021 
	C395.361877,379.744263 388.092163,386.789886 375.949677,386.790497 
	C259.290588,386.796478 142.631500,386.796478 25.972404,386.790405 
	C13.784197,386.789795 6.706657,379.792542 6.705564,367.706207 
	C6.695511,256.546753 6.696249,145.387314 6.702498,34.227859 
	C6.703177,22.156635 13.759279,15.210723 26.017385,15.209716 
	C113.178268,15.202553 200.339142,15.205645 288.000061,15.205498 
M286.737946,232.051666 
	C286.785156,211.042236 286.832336,190.032791 287.509735,168.753540 
	C290.286682,166.388870 293.107544,164.073578 295.832062,161.649979 
	C303.024628,155.251785 310.143402,148.770462 317.350433,142.388687 
	C327.780273,133.153183 338.228912,123.938194 348.747711,114.804451 
	C351.007629,112.842102 350.995636,111.100830 349.297150,108.855759 
	C338.076263,94.023514 324.915680,81.156540 309.214294,71.217659 
	C286.316071,56.723221 260.804535,49.115643 234.056259,47.333408 
	C215.271927,46.081818 196.281479,45.981846 177.454346,49.865692 
	C144.698959,56.622787 115.902977,70.684303 92.258553,94.413643 
	C79.396118,107.322281 69.282417,122.371422 62.446819,139.365128 
	C59.547798,146.572266 56.993469,153.987808 55.097084,161.513901 
	C51.200634,176.977554 49.989201,192.628189 50.743103,208.706131 
	C51.724167,229.628754 56.239845,249.390930 65.123596,268.222382 
	C74.843857,288.826965 88.549202,306.177612 106.603432,320.304047 
	C122.131210,332.453674 139.276443,341.075531 157.893326,347.164764 
	C179.512085,354.235901 201.725952,355.586731 224.274033,355.099213 
	C243.370041,354.686371 261.797760,351.176056 279.727325,344.904480 
	C307.659729,335.133972 330.241852,318.008453 348.064026,294.476349 
	C351.655457,289.734253 351.490448,289.379150 346.469696,284.971680 
	C331.883667,272.167297 317.430176,259.211975 302.854248,246.395996 
	C297.632904,241.805115 292.210327,237.443069 286.737946,232.051666 
z"/>
<path fill="#225B69" opacity="1.000000" stroke="none" 
	d="
M286.879608,232.976578 
	C292.210327,237.443069 297.632904,241.805115 302.854248,246.395996 
	C317.430176,259.211975 331.883667,272.167297 346.469696,284.971680 
	C351.490448,289.379150 351.655457,289.734253 348.064026,294.476349 
	C330.241852,318.008453 307.659729,335.133972 279.727325,344.904480 
	C261.797760,351.176056 243.370041,354.686371 224.274033,355.099213 
	C201.725952,355.586731 179.512085,354.235901 157.893326,347.164764 
	C139.276443,341.075531 122.131210,332.453674 106.603432,320.304047 
	C88.549202,306.177612 74.843857,288.826965 65.123596,268.222382 
	C56.239845,249.390930 51.724167,229.628754 50.743103,208.706131 
	C49.989201,192.628189 51.200634,176.977554 55.097084,161.513901 
	C56.993469,153.987808 59.547798,146.572266 62.446819,139.365128 
	C69.282417,122.371422 79.396118,107.322281 92.258553,94.413643 
	C115.902977,70.684303 144.698959,56.622787 177.454346,49.865692 
	C196.281479,45.981846 215.271927,46.081818 234.056259,47.333408 
	C260.804535,49.115643 286.316071,56.723221 309.214294,71.217659 
	C324.915680,81.156540 338.076263,94.023514 349.297150,108.855759 
	C350.995636,111.100830 351.007629,112.842102 348.747711,114.804451 
	C338.228912,123.938194 327.780273,133.153183 317.350433,142.388687 
	C310.143402,148.770462 303.024628,155.251785 295.832062,161.649979 
	C293.107544,164.073578 290.286682,166.388870 287.121582,168.422256 
	C286.721008,155.975174 286.760773,143.859009 286.678009,131.743683 
	C286.622620,123.628983 286.393311,115.515472 286.431519,106.980362 
	C287.945190,101.410927 288.402222,96.354355 284.699066,91.888420 
	C280.201599,86.464600 272.608887,85.078354 266.676361,88.529579 
	C260.060699,92.378204 258.157349,98.988991 261.097015,108.128517 
	C260.944824,124.069458 260.869080,139.524414 260.460449,154.937836 
	C247.501465,145.069321 233.568848,139.001999 217.113983,139.552979 
	C215.292465,115.963692 198.439529,96.485367 175.596024,93.155563 
	C164.005280,91.466042 152.023819,92.660744 140.264969,91.868843 
	C125.701645,90.888054 114.942276,102.237587 115.046402,116.890137 
	C115.458145,174.826492 115.208870,232.767532 115.220200,290.706848 
	C115.220490,292.196930 115.398849,293.686981 115.367455,295.555176 
	C114.104980,300.925354 113.683235,305.825562 117.281784,310.124756 
	C121.557663,315.233124 129.252045,316.751678 134.896942,313.636169 
	C141.348450,310.075470 143.448166,303.517792 140.896622,294.608124 
	C140.954300,235.459534 140.954300,176.781326 140.954300,117.811974 
	C149.949112,117.811974 158.254242,117.634392 166.549133,117.850052 
	C182.356522,118.261047 192.990341,130.885864 190.936737,146.954376 
	C185.523346,151.146515 179.138168,154.405579 175.538452,159.596329 
	C158.785553,183.753723 158.498810,209.516037 170.956177,235.498108 
	C175.140671,244.225647 181.708710,251.424454 191.375732,255.531525 
	C191.595154,258.296875 191.658737,260.626648 191.742249,262.955688 
	C192.445007,282.553619 204.826981,299.821014 223.352188,306.086853 
	C234.745422,309.940369 246.670914,309.422791 258.465729,308.365356 
	C262.026489,308.046143 265.767426,307.093628 268.932343,305.469482 
	C281.256287,299.145203 286.734375,288.580719 286.762848,274.942749 
	C286.792023,260.953979 286.839905,246.965302 286.879608,232.976578 
z"/>
<path fill="#FC5747" opacity="1.000000" stroke="none" 
	d="
M286.808777,232.514130 
	C286.839905,246.965302 286.792023,260.953979 286.762848,274.942749 
	C286.734375,288.580719 281.256287,299.145203 268.932343,305.469482 
	C265.767426,307.093628 262.026489,308.046143 258.465729,308.365356 
	C246.670914,309.422791 234.745422,309.940369 223.352188,306.086853 
	C204.826981,299.821014 192.445007,282.553619 191.742249,262.955688 
	C191.658737,260.626648 191.595154,258.296875 191.546661,255.081863 
	C191.612732,219.245667 191.657501,184.295044 191.677353,149.344391 
	C191.677811,148.533386 191.397446,147.722214 191.248062,146.911118 
	C192.990341,130.885864 182.356522,118.261047 166.549133,117.850052 
	C158.254242,117.634392 149.949112,117.811974 140.954300,117.811974 
	C140.954300,176.781326 140.954300,235.459534 140.626419,294.410217 
	C136.093964,285.839447 121.151825,284.751282 115.494164,295.177032 
	C115.398849,293.686981 115.220490,292.196930 115.220200,290.706848 
	C115.208870,232.767532 115.458145,174.826492 115.046402,116.890137 
	C114.942276,102.237587 125.701645,90.888054 140.264969,91.868843 
	C152.023819,92.660744 164.005280,91.466042 175.596024,93.155563 
	C198.439529,96.485367 215.292465,115.963692 217.059250,140.020691 
	C217.090622,179.333572 217.095490,217.757202 217.127243,256.180817 
	C217.128876,258.159576 217.360764,260.138123 217.500458,262.534851 
	C219.070587,275.489746 227.242508,282.912384 239.773666,283.096252 
	C244.581284,283.166809 249.392273,283.033783 254.199020,283.129303 
	C258.893402,283.222565 260.872040,280.590942 260.903168,276.355225 
	C260.975098,266.576813 260.842529,256.796906 260.861084,246.552460 
	C260.883972,215.718002 260.838654,185.348694 260.793365,154.979370 
	C260.869080,139.524414 260.944824,124.069458 261.374146,108.340103 
	C269.421753,117.225983 278.508911,116.979744 286.241821,107.401428 
	C286.393311,115.515472 286.622620,123.628983 286.678009,131.743683 
	C286.760773,143.859009 286.721008,155.975174 286.806458,168.557159 
	C286.832336,190.032791 286.785156,211.042236 286.808777,232.514130 
z"/>
<path fill="#35495E" opacity="1.000000" stroke="none" 
	d="
M217.485458,262.116791 
	C217.360764,260.138123 217.128876,258.159576 217.127243,256.180817 
	C217.095490,217.757202 217.090622,179.333572 217.134979,140.442230 
	C233.568848,139.001999 247.501465,145.069321 260.460449,154.937836 
	C260.838654,185.348694 260.883972,215.718002 260.529205,246.595917 
	C247.729263,257.263367 233.834122,263.174774 217.485458,262.116791 
z"/>
<path fill="#38495E" opacity="1.000000" stroke="none" 
	d="
M190.936737,146.954376 
	C191.397446,147.722214 191.677811,148.533386 191.677353,149.344391 
	C191.657501,184.295044 191.612732,219.245667 191.400055,254.645966 
	C181.708710,251.424454 175.140671,244.225647 170.956177,235.498108 
	C158.498810,209.516037 158.785553,183.753723 175.538452,159.596329 
	C179.138168,154.405579 185.523346,151.146515 190.936737,146.954376 
z"/>
<path fill="#F4F2F2" opacity="1.000000" stroke="none" 
	d="
M286.431519,106.980362 
	C278.508911,116.979744 269.421753,117.225983 261.450623,107.854126 
	C258.157349,98.988991 260.060699,92.378204 266.676361,88.529579 
	C272.608887,85.078354 280.201599,86.464600 284.699066,91.888420 
	C288.402222,96.354355 287.945190,101.410927 286.431519,106.980362 
z"/>
<path fill="#F3F3F3" opacity="1.000000" stroke="none" 
	d="
M115.367455,295.555176 
	C121.151825,284.751282 136.093964,285.839447 140.568741,294.880615 
	C143.448166,303.517792 141.348450,310.075470 134.896942,313.636169 
	C129.252045,316.751678 121.557663,315.233124 117.281784,310.124756 
	C113.683235,305.825562 114.104980,300.925354 115.367455,295.555176 
z"/>
<path fill="#245B69" opacity="1.000000" stroke="none" 
	d="
M217.500458,262.534851 
	C233.834122,263.174774 247.729263,257.263367 260.460999,247.061050 
	C260.842529,256.796906 260.975098,266.576813 260.903168,276.355225 
	C260.872040,280.590942 258.893402,283.222565 254.199020,283.129303 
	C249.392273,283.033783 244.581284,283.166809 239.773666,283.096252 
	C227.242508,282.912384 219.070587,275.489746 217.500458,262.534851 
z"/>
</svg>